<svg width="20" height="18" viewBox="0 0 20 18" fill="none" xmlns="http://www.w3.org/2000/svg">
<path d="M18.9993 12.2046H17.08L16.5413 16.2693C16.4642 16.815 15.963 17.1977 15.4162 17.1282L0.868834 15.2003C0.605199 15.1649 0.366457 15.0261 0.205391 14.8143C0.0436164 14.604 -0.0270141 14.3376 0.0092601 14.0748L1.23675 4.81765C1.30196 4.3191 1.72695 3.94635 2.22974 3.94673C2.27281 3.94681 2.3158 3.94973 2.35849 3.9554L3.32214 4.08249V1.86434C3.32214 1.31168 3.77014 0.863667 4.3228 0.863667H18.9993C19.5519 0.863667 19.9999 1.31168 19.9999 1.86434V11.2039C19.9999 11.7566 19.5519 12.2046 18.9993 12.2046ZM16.4072 12.2046H13.8025L16.3622 12.5438L16.4072 12.2046ZM0.669701 14.1649C0.657985 14.252 0.681751 14.3401 0.735745 14.4094C0.789406 14.4807 0.869417 14.5276 0.957893 14.5395L15.5026 16.4668C15.6855 16.49 15.8533 16.3624 15.8799 16.1799L16.0116 15.1866L0.801455 13.1696L0.669701 14.1649ZM3.32214 4.75527L2.27277 4.61684C2.09015 4.59258 1.92245 4.72095 1.89819 4.90358C1.89819 4.90362 1.89819 4.90366 1.89819 4.9037L1.15402 10.5268L3.32214 10.8133V4.75527ZM3.36617 11.4918L1.06463 11.1882L0.889514 12.5078L16.0997 14.5251L16.1997 13.7606L16.2738 13.2053L8.72574 12.2046H4.3228C3.88168 12.2038 3.49308 11.9143 3.36617 11.4918ZM19.3328 1.86434C19.3328 1.68013 19.1835 1.53078 18.9993 1.53078H4.3228C4.1386 1.53078 3.98925 1.68013 3.98925 1.86434V11.1939C3.98925 11.1972 3.99092 11.2006 3.99092 11.2039C3.99092 11.3881 4.14027 11.5375 4.32447 11.5375H18.9993C19.1835 11.5375 19.3328 11.3881 19.3328 11.2039V1.86434Z" fill="#219653"/>
</svg>
