<svg width="95" height="14" viewBox="0 0 95 14" fill="none" xmlns="http://www.w3.org/2000/svg">
<path d="M23.2475 13.9994C23.1927 13.9994 23.1378 13.9825 23.0917 13.9491C23.0101 13.8902 22.9693 13.7905 22.9865 13.6919L23.8056 8.95332L20.3368 5.5978C20.2647 5.52784 20.2388 5.42344 20.2698 5.3285C20.301 5.23329 20.384 5.16386 20.4839 5.1494L25.2772 4.45799L27.4211 0.14676C27.4656 0.0568166 27.5578 1.02754e-05 27.6585 1.02754e-05C27.7595 1.02754e-05 27.8517 0.0568166 27.8959 0.14676L30.0396 4.45799L34.8332 5.1494C34.9331 5.16386 35.0158 5.23303 35.0473 5.3285C35.0783 5.42344 35.0526 5.52811 34.9803 5.5978L31.5115 8.95384L32.3303 13.6922C32.3472 13.7908 32.3064 13.8905 32.2251 13.9494C32.1435 14.0088 32.0351 14.0164 31.9458 13.9694L27.6585 11.7324L23.3707 13.9694C23.3321 13.9894 23.2897 13.9994 23.2475 13.9994Z" fill="#FFA800"/>
<path d="M2.99065 13.9993C2.9358 13.9993 2.88095 13.9825 2.83484 13.9491C2.75323 13.8902 2.71243 13.7905 2.72965 13.6919L3.54868 8.95331L0.0799192 5.59779C0.0078465 5.52783 -0.018121 5.42343 0.0128809 5.32849C0.0441477 5.23328 0.127084 5.16385 0.226979 5.14939L5.02034 4.45798L7.16424 0.14675C7.20875 0.0568063 7.30096 0 7.40165 0C7.50261 0 7.59482 0.0568063 7.63907 0.14675L9.7827 4.45798L14.5763 5.14939C14.6762 5.16385 14.7589 5.23302 14.7904 5.32849C14.8214 5.42343 14.7957 5.5281 14.7234 5.59779L11.2546 8.95383L12.0734 13.6922C12.0904 13.7908 12.0495 13.8905 11.9682 13.9494C11.8866 14.0088 11.7782 14.0164 11.6889 13.9694L7.40165 11.7323L3.11386 13.9694C3.07517 13.9893 3.03278 13.9993 2.99065 13.9993Z" fill="#FFA800"/>
<path opacity="0.5" d="M82.7001 13.9993C82.6453 13.9993 82.5904 13.9825 82.5443 13.9491C82.4627 13.8902 82.4219 13.7905 82.4391 13.6919L83.2582 8.95331L79.7894 5.59779C79.7173 5.52783 79.6914 5.42343 79.7224 5.32849C79.7536 5.23328 79.8365 5.16385 79.9364 5.14939L84.7298 4.45798L86.8738 0.146749C86.9183 0.0568061 87.0105 0 87.1112 0C87.2121 0 87.3043 0.0568061 87.3486 0.146749L89.4922 4.45798L94.2859 5.14939C94.3858 5.16385 94.4685 5.23302 94.5 5.32849C94.531 5.42343 94.5053 5.5281 94.433 5.59779L90.9642 8.95383L91.783 13.6922C91.7999 13.7908 91.7591 13.8905 91.6778 13.9494C91.5961 14.0088 91.4878 14.0164 91.3985 13.9694L87.1112 11.7323L82.8233 13.9694C82.7846 13.9893 82.7423 13.9993 82.7001 13.9993Z" fill="#FFA800"/>
<path opacity="0.5" d="M43.4907 13.9993C43.4358 13.9993 43.3809 13.9825 43.3348 13.9491C43.2532 13.8902 43.2124 13.7905 43.2297 13.6919L44.0487 8.95331L40.5799 5.59779C40.5078 5.52783 40.4819 5.42343 40.5129 5.32849C40.5441 5.23328 40.6271 5.16385 40.727 5.14939L45.5204 4.45798L47.6643 0.146749C47.7088 0.0568061 47.801 0 47.9017 0C48.0027 0 48.0949 0.0568061 48.1391 0.146749L50.2828 4.45798L55.0765 5.14939C55.1764 5.16385 55.259 5.23302 55.2906 5.32849C55.3216 5.42343 55.2959 5.5281 55.2235 5.59779L51.7547 8.95383L52.5735 13.6922C52.5904 13.7908 52.5496 13.8905 52.4683 13.9494C52.3867 14.0088 52.2783 14.0164 52.189 13.9694L47.9017 11.7323L43.6139 13.9694C43.5752 13.9893 43.5328 13.9993 43.4907 13.9993Z" fill="#FFA800"/>
<path opacity="0.5" d="M63.9907 13.9993C63.9358 13.9993 63.8809 13.9825 63.8348 13.9491C63.7532 13.8902 63.7124 13.7905 63.7297 13.6919L64.5487 8.95331L61.0799 5.59779C61.0078 5.52783 60.9819 5.42343 61.0129 5.32849C61.0441 5.23328 61.1271 5.16385 61.227 5.14939L66.0204 4.45798L68.1643 0.146749C68.2088 0.0568061 68.301 0 68.4017 0C68.5027 0 68.5949 0.0568061 68.6391 0.146749L70.7828 4.45798L75.5765 5.14939C75.6764 5.16385 75.759 5.23302 75.7906 5.32849C75.8216 5.42343 75.7959 5.5281 75.7235 5.59779L72.2547 8.95383L73.0735 13.6922C73.0904 13.7908 73.0496 13.8905 72.9683 13.9494C72.8867 14.0088 72.7783 14.0164 72.689 13.9694L68.4017 11.7323L64.1139 13.9694C64.0752 13.9893 64.0328 13.9993 63.9907 13.9993Z" fill="#FFA800"/>
</svg>
